<svg xmlns="http://www.w3.org/2000/svg" viewBox="0 0 1440 320"><path fill="#fff" fill-opacity="1" d="M0,256L0,224L36.9,224L36.9,256L73.8,256L73.8,224L110.8,224L110.8,288L147.7,288L147.7,192L184.6,192L184.6,192L221.5,192L221.5,256L258.5,256L258.5,128L295.4,128L295.4,160L332.3,160L332.3,320L369.2,320L369.2,64L406.2,64L406.2,96L443.1,96L443.1,32L480,32L480,192L516.9,192L516.9,288L553.8,288L553.8,192L590.8,192L590.8,192L627.7,192L627.7,288L664.6,288L664.6,128L701.5,128L701.5,288L738.5,288L738.5,192L775.4,192L775.4,64L812.3,64L812.3,192L849.2,192L849.2,64L886.2,64L886.2,192L923.1,192L923.1,96L960,96L960,0L996.9,0L996.9,64L1033.8,64L1033.8,128L1070.8,128L1070.8,224L1107.7,224L1107.7,160L1144.6,160L1144.6,128L1181.5,128L1181.5,288L1218.5,288L1218.5,192L1255.4,192L1255.4,224L1292.3,224L1292.3,64L1329.2,64L1329.2,160L1366.2,160L1366.2,0L1403.1,0L1403.1,96L1440,96L1440,320L1403.1,320L1403.1,320L1366.2,320L1366.2,320L1329.2,320L1329.2,320L1292.3,320L1292.3,320L1255.4,320L1255.4,320L1218.5,320L1218.5,320L1181.5,320L1181.5,320L1144.6,320L1144.6,320L1107.7,320L1107.7,320L1070.8,320L1070.8,320L1033.8,320L1033.8,320L996.9,320L996.9,320L960,320L960,320L923.1,320L923.1,320L886.2,320L886.2,320L849.2,320L849.2,320L812.3,320L812.3,320L775.4,320L775.4,320L738.5,320L738.5,320L701.5,320L701.5,320L664.6,320L664.6,320L627.7,320L627.7,320L590.8,320L590.8,320L553.8,320L553.8,320L516.9,320L516.9,320L480,320L480,320L443.1,320L443.1,320L406.2,320L406.2,320L369.2,320L369.2,320L332.3,320L332.3,320L295.4,320L295.4,320L258.5,320L258.5,320L221.5,320L221.5,320L184.6,320L184.6,320L147.7,320L147.7,320L110.8,320L110.8,320L73.8,320L73.8,320L36.9,320L36.9,320L0,320L0,320Z"></path></svg>